<svg width="30" height="30" viewBox="0 0 30 30" fill="none" xmlns="http://www.w3.org/2000/svg">
<path d="M28.9643 15C28.9643 23.0167 22.5839 29.5 14.7321 29.5C6.8804 29.5 0.5 23.0167 0.5 15C0.5 6.98334 6.8804 0.5 14.7321 0.5C22.5839 0.5 28.9643 6.98334 28.9643 15Z" stroke="#828282"/>
<path d="M15.7267 22.472H13.3629C12.9681 22.472 12.6469 22.1604 12.6469 21.7774V16.6056H11.2678C10.8729 16.6056 10.5518 16.294 10.5518 15.9111V13.695C10.5518 13.312 10.8729 13.0004 11.2678 13.0004H12.6469V11.8907C12.6469 10.7903 13.0031 9.85411 13.6769 9.1835C14.3537 8.50982 15.2996 8.15381 16.4122 8.15381L18.215 8.15665C18.6092 8.1573 18.9298 8.46885 18.9298 8.85119V10.9088C18.9298 11.2918 18.6087 11.6034 18.214 11.6034L17.0002 11.6038C16.6301 11.6038 16.5358 11.6758 16.5156 11.6979C16.4824 11.7344 16.4429 11.8379 16.4429 12.1236V13.0003H18.1228C18.2493 13.0003 18.3718 13.0306 18.4771 13.0876C18.7042 13.2107 18.8455 13.4435 18.8455 13.6951L18.8446 15.9112C18.8446 16.294 18.5234 16.6055 18.1285 16.6055H16.4429V21.7774C16.4429 22.1604 16.1216 22.472 15.7267 22.472ZM13.5122 21.6326H15.5774V16.2299C15.5774 15.9741 15.792 15.7661 16.0555 15.7661H17.9792L17.98 13.8398H16.0554C15.7918 13.8398 15.5774 13.6318 15.5774 13.3761V12.1236C15.5774 11.7956 15.6118 11.4227 15.867 11.1424C16.1753 10.8035 16.6612 10.7644 17 10.7644L18.0645 10.764V8.99582L16.4116 8.9932C14.6234 8.9932 13.5122 10.1035 13.5122 11.8907V13.3761C13.5122 13.6317 13.2978 13.8398 13.0343 13.8398H11.4171V15.7661H13.0343C13.2978 15.7661 13.5122 15.9741 13.5122 16.2299V21.6326ZM18.2133 8.99604H18.2134H18.2133Z" fill="#828282"/>
</svg>
