<svg width="15" height="22" viewBox="0 0 15 22" fill="none" xmlns="http://www.w3.org/2000/svg">
<path d="M7.54 21.957L7.09468 21.4569C7.03063 21.385 5.50928 19.6691 3.89322 17.2402C1.69972 13.9432 0.459142 11.0522 0.206146 8.64713C0.164247 8.29952 0.14386 7.98648 0.14386 7.69023C0.14386 3.42625 3.46187 -0.0429688 7.54016 -0.0429688C11.6172 -0.0429688 14.9352 3.42558 14.9365 7.68889C14.9365 7.97691 14.9165 8.28592 14.8755 8.63336C14.6281 11.0393 13.3891 13.9331 11.1927 17.2345C9.57456 19.6664 8.04952 21.385 7.98547 21.457L7.54 21.957ZM7.54016 1.22964C4.13305 1.22964 1.361 4.12802 1.361 7.6904C1.361 7.93411 1.3785 8.19663 1.41446 8.49271L1.41559 8.50345C1.87743 12.9176 6.13712 18.374 7.54032 20.0657C8.94544 18.3728 13.2146 12.9077 13.6657 8.49254L13.667 8.4818C13.7026 8.18068 13.7193 7.92874 13.7193 7.68906C13.7182 4.12752 10.9461 1.22964 7.54016 1.22964ZM7.54016 12.8918C4.79717 12.8918 2.56547 10.5584 2.56547 7.6904C2.56547 4.8224 4.79717 2.489 7.54016 2.489C10.2825 2.489 12.5136 4.8224 12.5136 7.6904C12.5136 10.5584 10.2825 12.8918 7.54016 12.8918ZM7.54016 3.76178C5.46835 3.76178 3.78277 5.52417 3.78277 7.6904C3.78277 9.85663 5.46835 11.619 7.54016 11.619C9.61133 11.619 11.2964 9.85663 11.2964 7.6904C11.2964 5.52417 9.61133 3.76178 7.54016 3.76178Z" fill="#4F4F4F"/>
</svg>
