<svg width="30" height="30" viewBox="0 0 30 30" fill="none" xmlns="http://www.w3.org/2000/svg">
<path d="M29.1428 15C29.1428 23.0167 22.7624 29.5 14.9107 29.5C7.05896 29.5 0.678558 23.0167 0.678558 15C0.678558 6.98334 7.05896 0.5 14.9107 0.5C22.7624 0.5 29.1428 6.98334 29.1428 15Z" stroke="#828282"/>
<path d="M18.2889 7.5H11.5325C9.33353 7.5 7.54462 9.32144 7.54462 11.5604V18.4397C7.54462 20.6785 9.33353 22.5 11.5325 22.5H18.289C20.4878 22.5 22.2767 20.6785 22.2767 18.4397V11.5604C22.2767 9.32144 20.4878 7.5 18.2889 7.5V7.5ZM21.4131 18.4397C21.4131 20.1936 20.0116 21.6206 18.2889 21.6206H11.5325C9.80976 21.6206 8.40828 20.1936 8.40828 18.4397V11.5604C8.40828 9.80632 9.80976 8.37936 11.5325 8.37936H18.289C20.0116 8.37936 21.4131 9.80632 21.4131 11.5604V18.4397Z" fill="#828282"/>
<path d="M14.9107 10.8986C12.6895 10.8986 10.8825 12.7384 10.8825 15C10.8825 17.2616 12.6895 19.1014 14.9107 19.1014C17.1319 19.1014 18.9389 17.2616 18.9389 15C18.9389 12.7384 17.1319 10.8986 14.9107 10.8986ZM14.9107 18.2221C13.1658 18.2221 11.7461 16.7767 11.7461 15C11.7461 13.2234 13.1658 11.7779 14.9107 11.7779C16.6556 11.7779 18.0752 13.2234 18.0752 15C18.0752 16.7767 16.6556 18.2221 14.9107 18.2221Z" fill="#828282"/>
<path d="M19.0352 9.44189C18.3788 9.44189 17.8449 9.9856 17.8449 10.6538C17.8449 11.3222 18.3788 11.8659 19.0352 11.8659C19.6916 11.8659 20.2256 11.3222 20.2256 10.6538C20.2256 9.98549 19.6916 9.44189 19.0352 9.44189ZM19.0352 10.9864C18.8552 10.9864 18.7086 10.8372 18.7086 10.6538C18.7086 10.4704 18.8552 10.3213 19.0352 10.3213C19.2154 10.3213 19.362 10.4704 19.362 10.6538C19.362 10.8372 19.2154 10.9864 19.0352 10.9864Z" fill="#828282"/>
</svg>
