<svg width="14" height="14" viewBox="0 0 14 14" fill="none" xmlns="http://www.w3.org/2000/svg">
<path d="M11.8166 8.09832C11.2263 7.50798 10.2657 7.50798 9.6754 8.09832L9.02977 8.74399C7.42659 7.87038 6.12927 6.57299 5.25551 4.96972L5.90114 4.32405C6.49165 3.7337 6.49165 2.77307 5.90114 2.18272L4.16128 0.442762C3.57097 -0.147587 2.61039 -0.147587 2.02008 0.442762L0.628276 1.83465C-0.168972 2.63194 -0.208744 4.00262 0.516229 5.69433C1.14571 7.16313 2.29767 8.77751 3.75993 10.2399C5.22219 11.7022 6.83648 12.8542 8.3052 13.4837C9.1089 13.8282 9.83993 14 10.4716 14C11.1696 14 11.7461 13.7902 12.1647 13.3717L13.5565 11.9796V11.9798C13.8425 11.6937 14 11.3135 14 10.9091C14 10.5045 13.8425 10.1244 13.5565 9.83848L11.8166 8.09832ZM11.0672 12.2742C10.8397 12.5017 10.1399 12.5815 8.91671 12.0573C7.62504 11.5037 6.18337 10.4684 4.85739 9.14234C3.5314 7.81627 2.49633 6.37472 1.94276 5.08298C1.41846 3.85968 1.4982 3.1597 1.72573 2.93216L3.09088 1.56693L4.77704 3.25338L3.96889 4.06178C3.60347 4.42722 3.51525 4.98143 3.74964 5.44095C4.81216 7.52453 6.4751 9.18756 8.55856 10.2502C9.01826 10.4846 9.57244 10.3965 9.93785 10.0309L10.746 9.22269L12.4324 10.9091L11.0672 12.2742Z" fill="#4F4F4F"/>
</svg>
