<svg width="30" height="30" viewBox="0 0 30 30" fill="none" xmlns="http://www.w3.org/2000/svg">
<path d="M29.3214 15C29.3214 23.0167 22.941 29.5 15.0893 29.5C7.23755 29.5 0.857147 23.0167 0.857147 15C0.857147 6.98334 7.23755 0.5 15.0893 0.5C22.941 0.5 29.3214 6.98334 29.3214 15Z" stroke="#828282"/>
<path d="M13.1688 21.8181C10.4864 21.8181 8.36642 21.3365 7.35215 20.497L7.33241 20.4806L7.31451 20.4622C7.07357 20.2145 6.9946 19.8895 7.09809 19.5707L7.10753 19.5442C7.23309 19.2215 7.54073 19.0043 7.87412 19.0022C8.56028 18.99 9.1606 18.906 9.70538 18.7428C8.83641 18.3274 8.23277 17.6083 7.87363 16.5674C7.75286 16.2428 7.85708 15.8829 8.13542 15.6683C8.20408 15.6153 8.2817 15.5752 8.36385 15.5484C7.88099 14.9755 7.5243 14.3236 7.32456 13.6342L7.31831 13.6128L7.31402 13.5909C7.24621 13.2422 7.39789 12.8837 7.67585 12.7293C7.79246 12.6605 7.91912 12.6249 8.04627 12.6218C7.90919 12.3184 7.8095 12.0069 7.7504 11.6935C7.58634 10.825 7.72171 9.9544 8.15258 9.10583L8.25227 8.90094C8.33209 8.73699 8.48462 8.62182 8.66045 8.59246C8.83628 8.56322 9.01653 8.62295 9.14245 8.75237L9.32405 8.93924C10.7586 10.4849 12.0437 11.2183 14.2653 11.7201C14.3645 10.8437 14.7332 10.029 15.328 9.38785C16.0359 8.62497 16.9811 8.1969 17.9896 8.18229H17.9962C18.7321 8.18229 19.6448 8.61401 20.1968 8.91845C20.6704 8.75917 21.2409 8.51257 21.8329 8.25184C22.1099 8.11827 22.4513 8.17939 22.6691 8.40319C22.8826 8.62257 22.9418 8.93194 22.8285 9.2326C22.7855 9.35572 22.7367 9.47656 22.6824 9.59476C22.7634 9.63294 22.8376 9.68474 22.9002 9.74913C23.0897 9.94382 23.1686 10.2485 23.1013 10.5255L23.0941 10.5518C22.8673 11.3031 22.4315 11.915 21.8552 12.2991C21.7589 17.5666 17.8993 21.8181 13.1688 21.8181ZM8.25595 19.9575C9.21173 20.5133 11.0332 20.8495 13.1688 20.8495C15.222 20.8495 17.1595 19.9436 18.6244 18.2986C20.1013 16.6401 20.9146 14.4378 20.9146 12.0973V12.0709C20.9146 11.859 21.0282 11.6655 21.2108 11.566C21.5815 11.3642 21.8817 11.0206 22.0769 10.5812C21.8755 10.6138 21.6709 10.5308 21.5455 10.3576C21.3997 10.1564 21.3981 9.88459 21.5414 9.68159C21.6188 9.57195 21.6889 9.45791 21.7515 9.33996C21.2403 9.56061 20.7548 9.75845 20.3334 9.88988C20.1803 9.93752 20.0096 9.91887 19.8697 9.8386C19.1194 9.40902 18.4206 9.15221 17.9993 9.15095C16.4447 9.17539 15.1806 10.5438 15.1806 12.2028C15.1806 12.3744 15.1066 12.5351 14.9777 12.6441C14.8487 12.753 14.681 12.7966 14.5172 12.7634C11.9555 12.2447 10.4375 11.4669 8.85897 9.83671C8.63274 10.3938 8.57094 10.9549 8.67553 11.509C8.7816 12.0703 9.06373 12.6327 9.49154 13.1353C9.65413 13.3261 9.67571 13.5991 9.54524 13.8144C9.41527 14.029 9.1682 14.1293 8.9307 14.0639C8.74506 14.0128 8.57438 13.9456 8.41253 13.8593C8.74224 14.5953 9.30933 15.276 10.0222 15.7781C10.2288 15.9236 10.3151 16.1949 10.2323 16.4379C10.1492 16.6812 9.91738 16.8378 9.66676 16.8187C9.39369 16.7979 9.15177 16.7446 8.9291 16.6548C9.32883 17.4914 9.96753 17.9517 10.9515 18.1276C11.1858 18.1696 11.3683 18.3597 11.4056 18.6008C11.443 18.8418 11.3268 19.0808 11.1168 19.1953C10.2781 19.6522 9.36144 19.8974 8.25595 19.9575Z" fill="#828282"/>
</svg>
