<svg width="30" height="30" viewBox="0 0 30 30" fill="none" xmlns="http://www.w3.org/2000/svg">
<path d="M29.5 15C29.5 23.0167 23.1196 29.5 15.2678 29.5C7.41611 29.5 1.03571 23.0167 1.03571 15C1.03571 6.98334 7.41611 0.5 15.2678 0.5C23.1196 0.5 29.5 6.98334 29.5 15Z" stroke="#828282"/>
<g clip-path="url(#clip0_2_72)">
<path d="M17.5354 14.326L14.2808 12.5128C14.0936 12.4085 13.8724 12.4124 13.689 12.5231C13.5054 12.6339 13.396 12.8296 13.396 13.0468V16.642C13.396 16.8582 13.5048 17.0536 13.6871 17.1645C13.7823 17.2224 13.8878 17.2514 13.9936 17.2514C14.0905 17.2514 14.1876 17.2271 14.2769 17.1781L17.5317 15.3961C17.7249 15.2903 17.8455 15.0858 17.8464 14.8623C17.8472 14.6388 17.7281 14.4333 17.5354 14.326ZM14.2593 16.1898V13.5027L16.6918 14.8579L14.2593 16.1898Z" fill="#828282"/>
<path d="M22.5255 11.9979L22.5248 11.991C22.5123 11.8703 22.3881 10.7964 21.8754 10.2501C21.2827 9.60766 20.6108 9.52961 20.2877 9.49219C20.2609 9.4891 20.2364 9.48624 20.2145 9.48326L20.1888 9.48051C18.2412 9.33632 15.2998 9.31664 15.2704 9.31652L15.2678 9.31641L15.2652 9.31652C15.2358 9.31664 12.2945 9.33632 10.3293 9.48051L10.3033 9.48326C10.2824 9.48612 10.2594 9.48875 10.2343 9.49173C9.9149 9.52927 9.25019 9.60743 8.65583 10.2731C8.16747 10.8135 8.0263 11.8644 8.0118 11.9825L8.01011 11.9979C8.00573 12.0481 7.90176 13.2441 7.90176 14.4448V15.5673C7.90176 16.768 8.00573 17.964 8.01011 18.0144L8.0109 18.0219C8.02338 18.1407 8.14746 19.1949 8.65786 19.7414C9.21512 20.3624 9.91974 20.4445 10.2987 20.4887C10.3586 20.4957 10.4102 20.5016 10.4454 20.5079L10.4795 20.5127C11.604 20.6217 15.1298 20.6754 15.2793 20.6775L15.2838 20.6776L15.2883 20.6775C15.3177 20.6774 18.2589 20.6577 20.2065 20.5135L20.2323 20.5108C20.2569 20.5075 20.2845 20.5045 20.3149 20.5013C20.6325 20.467 21.2936 20.3957 21.8798 19.739C22.3681 19.1985 22.5094 18.1476 22.5238 18.0296L22.5255 18.0143C22.5299 17.9639 22.634 16.768 22.634 15.5673V14.4448C22.6338 13.2441 22.5299 12.0482 22.5255 11.9979ZM21.7705 15.5673C21.7705 16.6786 21.6752 17.8231 21.6662 17.9282C21.6296 18.2176 21.4807 18.8825 21.2427 19.1459C20.8758 19.5568 20.499 19.5975 20.2238 19.6272C20.1906 19.6307 20.1598 19.6342 20.1319 19.6377C18.2481 19.7764 15.4179 19.7977 15.2875 19.7985C15.1412 19.7963 11.6671 19.7422 10.5768 19.6391C10.5209 19.6298 10.4606 19.6227 10.397 19.6154C10.0743 19.5778 9.63256 19.5263 9.2929 19.1459L9.28492 19.1372C9.05113 18.8892 8.90648 18.2674 8.86973 17.9316C8.86287 17.8522 8.76508 16.6942 8.76508 15.5673V14.4448C8.76508 13.3348 8.86017 12.1915 8.86939 12.0843C8.91311 11.7434 9.06485 11.1187 9.2929 10.8663C9.671 10.4428 10.0697 10.3959 10.3334 10.3649C10.3585 10.3619 10.382 10.3592 10.4037 10.3563C12.3149 10.2169 15.1655 10.1962 15.2678 10.1954C15.3701 10.1961 18.2197 10.2169 20.1139 10.3563C20.1372 10.3593 20.1626 10.3623 20.1899 10.3655C20.4611 10.397 20.871 10.4446 21.2472 10.8531L21.2507 10.8569C21.4845 11.1049 21.6291 11.7375 21.6659 12.08C21.6724 12.155 21.7705 13.3155 21.7705 14.4448V15.5673Z" fill="#828282"/>
</g>
<defs>
<clipPath id="clip0_2_72">
<rect width="14.7321" height="15" fill="white" transform="translate(7.90176 7.5)"/>
</clipPath>
</defs>
</svg>
